<svg aria-hidden="true" style="position: absolute; width: 0; height: 0; overflow: hidden;" version="1.1" xmlns="http://www.w3.org/2000/svg" xmlns:xlink="http://www.w3.org/1999/xlink">
<defs>
<symbol id="icon-333" viewBox="0 0 32 32">
<path d="M29.197 31.867h-26.394c-0.618 0-1.121-0.502-1.121-1.121v-29.492c0-0.618 0.502-1.121 1.121-1.121h26.394c0.618 0 1.121 0.503 1.121 1.121v29.492c0 0.618-0.503 1.121-1.121 1.121zM2.803 0.933c-0.177 0-0.321 0.144-0.321 0.321v29.492c0 0.177 0.144 0.321 0.321 0.321h26.394c0.177 0 0.321-0.144 0.321-0.321v-29.492c0-0.177-0.144-0.321-0.321-0.321h-26.394z"></path>
<path d="M27.789 24.489c-0.221 0-0.4-0.179-0.4-0.4v-6.845c0-0.221 0.179-0.4 0.4-0.4s0.4 0.179 0.4 0.4v6.844c0 0.221-0.179 0.401-0.4 0.401z"></path>
<path d="M27.789 15.2c-0.221 0-0.4-0.179-0.4-0.4v-6.844c0-0.221 0.179-0.4 0.4-0.4s0.4 0.179 0.4 0.4v6.844c0 0.221-0.179 0.4-0.4 0.4z"></path>
<path d="M27.179 29.738h-22.357c-0.557 0-1.011-0.453-1.011-1.010v-25.455c0-0.557 0.453-1.011 1.011-1.011h22.357c0.557 0 1.010 0.453 1.010 1.011v2.239c0 0.221-0.179 0.4-0.4 0.4s-0.4-0.179-0.4-0.4v-2.239c0-0.116-0.094-0.211-0.21-0.211h-22.357c-0.116 0-0.211 0.094-0.211 0.211v25.455c0 0.116 0.094 0.21 0.211 0.21h22.357c0.116 0 0.21-0.094 0.21-0.21v-2.239c0-0.221 0.179-0.4 0.4-0.4s0.4 0.179 0.4 0.4v2.239c0 0.557-0.453 1.010-1.010 1.010z"></path>
<path d="M29.889 8.304h-3.502c-0.446 0-0.809-0.363-0.809-0.809v-1.569c0-0.446 0.363-0.81 0.809-0.81h3.502c0.221 0 0.4 0.179 0.4 0.4s-0.179 0.4-0.4 0.4h-3.502l-0.009 1.578 3.511 0.009c0.221 0 0.4 0.179 0.4 0.4s-0.179 0.401-0.399 0.401z"></path>
<path d="M29.889 17.599h-3.502c-0.446 0-0.809-0.363-0.809-0.81v-1.568c0-0.446 0.363-0.81 0.809-0.81h3.502c0.221 0 0.4 0.179 0.4 0.4s-0.179 0.4-0.4 0.4h-3.502l-0.009 1.578 3.511 0.010c0.221 0 0.4 0.179 0.4 0.4s-0.179 0.4-0.399 0.4z"></path>
<path d="M29.889 26.895h-3.502c-0.446 0-0.809-0.363-0.809-0.81v-1.569c0-0.446 0.363-0.81 0.809-0.81h3.502c0.221 0 0.4 0.179 0.4 0.4s-0.179 0.4-0.4 0.4h-3.502l-0.009 1.578 3.511 0.010c0.221 0 0.4 0.179 0.4 0.4s-0.179 0.4-0.399 0.4z"></path>
<path d="M7.494 26.389c-1.078 0-1.133-2.554-1.133-3.066 0-0.119 0.002-0.235 0.006-0.35-0.513-0.363-0.822-0.949-0.822-1.582 0-1.075 0.875-1.949 1.95-1.949s1.949 0.874 1.949 1.949c0 0.634-0.31 1.219-0.822 1.582 0.004 0.115 0.006 0.231 0.006 0.35-0.001 0.513-0.055 3.066-1.134 3.066zM7.494 20.243c-0.634 0-1.15 0.515-1.15 1.149 0 0.423 0.237 0.811 0.62 1.012 0.139 0.073 0.222 0.221 0.213 0.378-0.011 0.175-0.016 0.356-0.016 0.542 0 1.105 0.187 1.851 0.333 2.154 0.147-0.302 0.333-1.049 0.333-2.154 0-0.186-0.006-0.367-0.016-0.542-0.010-0.157 0.074-0.305 0.213-0.378 0.382-0.201 0.62-0.589 0.62-1.012 0-0.633-0.516-1.148-1.149-1.148z"></path>
<path d="M16 20.27c-2.355 0-4.27-1.916-4.27-4.27s1.916-4.27 4.27-4.27c2.355 0 4.27 1.916 4.27 4.27s-1.916 4.27-4.27 4.27zM16 12.53c-1.913 0-3.47 1.557-3.47 3.47s1.557 3.47 3.47 3.47c1.914 0 3.47-1.557 3.47-3.47s-1.557-3.47-3.47-3.47z"></path>
<path d="M16 17.705c-0.873 0-1.594-0.659-1.693-1.506l-0.961-0.789c-0.129-0.106-0.178-0.28-0.125-0.437s0.199-0.266 0.365-0.271l1.375-0.047c0.299-0.231 0.662-0.357 1.039-0.357 0.94 0 1.704 0.765 1.704 1.705s-0.765 1.705-1.705 1.705zM14.673 15.463l0.277 0.228c0.092 0.076 0.146 0.189 0.146 0.309 0 0.499 0.406 0.905 0.905 0.905s0.904-0.406 0.904-0.905-0.406-0.905-0.905-0.905c-0.226 0-0.444 0.087-0.614 0.245-0.070 0.066-0.163 0.103-0.259 0.107l-0.455 0.016z"></path>
</symbol>
</defs>
</svg>
