<?xml version="1.0" encoding="utf-8"?>
<!-- Generator: Adobe Illustrator 24.1.2, SVG Export Plug-In . SVG Version: 6.00 Build 0)  -->
<svg version="1.1" id="Layer_1" xmlns="http://www.w3.org/2000/svg" xmlns:xlink="http://www.w3.org/1999/xlink" x="0px" y="0px"
	 viewBox="0 0 50 50" style="enable-background:new 0 0 50 50;" xml:space="preserve">
<style type="text/css">
	.st0{fill:#dc3545;}
</style>
<g>
	<path class="st0" d="M25.617,16.895c-2.256,0-4.091-1.835-4.091-4.091c0-2.256,1.835-4.091,4.091-4.091
		c2.255,0,4.091,1.835,4.091,4.091C29.707,15.06,27.872,16.895,25.617,16.895z M25.617,10.233c-1.418,0-2.571,1.153-2.571,2.57
		c0,1.418,1.153,2.571,2.571,2.571c1.417,0,2.57-1.153,2.57-2.571C28.187,11.387,27.034,10.233,25.617,10.233z"/>
	<path class="st0" d="M26.884,47.5h-6.376c-0.42,0-0.76-0.34-0.76-0.76v-0.97c0-1.554,1.264-2.817,2.817-2.817h0.179V22.543
		l-3.851-0.102c-0.572-0.015-1.118-0.238-1.536-0.628l-4.433-4.121c-0.947-0.881-1.001-2.368-0.121-3.316
		c0.882-0.948,2.369-1.002,3.318-0.121l3.779,3.513l6.329,0.09c1.656,0.003,3.002,1.351,3.002,3.008v10.535
		c0,1.055-0.684,2.013-1.586,2.373V46.74C27.644,47.16,27.304,47.5,26.884,47.5z M21.268,45.98h4.856V33.164
		c0-0.418,0.337-0.757,0.755-0.76c0.327-0.002,0.831-0.434,0.831-1.002V20.867c0-0.82-0.668-1.488-1.488-1.488
		c-0.011,0-6.637-0.094-6.637-0.094c-0.188-0.003-0.369-0.075-0.507-0.204l-3.994-3.713c-0.333-0.311-0.858-0.292-1.169,0.043
		c-0.31,0.334-0.29,0.858,0.043,1.168l4.433,4.121c0.147,0.137,0.339,0.216,0.54,0.22l4.592,0.122c0.412,0.011,0.74,0.348,0.74,0.76
		v21.91c0,0.42-0.34,0.76-0.76,0.76h-0.939c-0.715,0-1.297,0.582-1.297,1.297V45.98z"/>
	<path class="st0" d="M30.732,16.895c-0.42,0-0.76-0.34-0.76-0.76c0-0.42,0.34-0.76,0.76-0.76c1.418,0,2.571-1.153,2.571-2.571
		c0-1.417-1.153-2.57-2.571-2.57c-0.42,0-0.76-0.34-0.76-0.76s0.34-0.76,0.76-0.76c2.256,0,4.091,1.835,4.091,4.091
		C34.823,15.06,32.988,16.895,30.732,16.895z"/>
	<path class="st0" d="M31.999,47.5h-6.376c-0.42,0-0.76-0.34-0.76-0.76c0-0.42,0.34-0.76,0.76-0.76h5.616V33.164
		c0-0.418,0.337-0.757,0.755-0.76c0.327-0.002,0.831-0.434,0.831-1.002V20.867c0-0.82-0.668-1.488-1.488-1.488
		c-0.42,0-0.76-0.34-0.76-0.76c0-0.42,0.34-0.76,0.76-0.76c1.659,0,3.008,1.349,3.008,3.008v10.535c0,1.055-0.684,2.013-1.586,2.373
		V46.74C32.759,47.16,32.419,47.5,31.999,47.5z"/>
	<path class="st0" d="M35.847,16.895c-0.42,0-0.76-0.34-0.76-0.76c0-0.42,0.34-0.76,0.76-0.76c1.418,0,2.571-1.153,2.571-2.571
		c0-1.417-1.153-2.57-2.571-2.57c-0.42,0-0.76-0.34-0.76-0.76s0.34-0.76,0.76-0.76c2.256,0,4.091,1.835,4.091,4.091
		C39.938,15.06,38.103,16.895,35.847,16.895z"/>
	<path class="st0" d="M37.114,47.5h-6.376c-0.42,0-0.76-0.34-0.76-0.76c0-0.42,0.34-0.76,0.76-0.76h5.616V33.164
		c0-0.418,0.337-0.757,0.755-0.76c0.327-0.002,0.832-0.434,0.832-1.002V20.867c0-0.82-0.667-1.488-1.488-1.488
		c-0.42,0-0.76-0.34-0.76-0.76c0-0.42,0.34-0.76,0.76-0.76c1.659,0,3.009,1.349,3.009,3.008v10.535c0,1.055-0.684,2.013-1.587,2.373
		V46.74C37.874,47.16,37.534,47.5,37.114,47.5z"/>
	<path class="st0" d="M40.962,16.895c-0.42,0-0.76-0.34-0.76-0.76c0-0.42,0.34-0.76,0.76-0.76c1.418,0,2.571-1.153,2.571-2.571
		c0-1.417-1.153-2.57-2.571-2.57c-0.42,0-0.76-0.34-0.76-0.76s0.34-0.76,0.76-0.76c2.256,0,4.091,1.835,4.091,4.091
		C45.053,15.06,43.218,16.895,40.962,16.895z"/>
	<path class="st0" d="M42.229,47.5h-6.376c-0.42,0-0.76-0.34-0.76-0.76c0-0.42,0.34-0.76,0.76-0.76h5.616V33.164
		c0-0.418,0.337-0.757,0.755-0.76c0.327-0.002,0.832-0.434,0.832-1.002V20.867c0-0.82-0.668-1.488-1.488-1.488
		c-0.42,0-0.76-0.34-0.76-0.76c0-0.42,0.34-0.76,0.76-0.76c1.659,0,3.009,1.349,3.009,3.008v10.535c0,1.055-0.684,2.013-1.587,2.373
		V46.74C42.989,47.16,42.649,47.5,42.229,47.5z"/>
	<path class="st0" d="M43.816,47.5H9.218c-0.42,0-0.76-0.34-0.76-0.76V6.567c0-0.42,0.34-0.76,0.76-0.76h27.925
		c0.42,0,0.76,0.34,0.76,0.76s-0.34,0.76-0.76,0.76H9.978V45.98h33.838c0.42,0,0.76,0.34,0.76,0.76
		C44.576,47.16,44.236,47.5,43.816,47.5z"/>
	<path class="st0" d="M9.218,44.193H5.707c-0.42,0-0.76-0.34-0.76-0.76V3.26c0-0.42,0.34-0.76,0.76-0.76h27.925
		c0.42,0,0.76,0.34,0.76,0.76v3.307c0,0.42-0.34,0.76-0.76,0.76H9.978v36.106C9.978,43.852,9.638,44.193,9.218,44.193z
		 M6.467,42.672h1.991V6.567c0-0.42,0.34-0.76,0.76-0.76h23.654V4.02H6.467V42.672z"/>
</g>
</svg>
