<?xml version="1.0" encoding="utf-8"?>
<!-- Generator: Adobe Illustrator 24.1.2, SVG Export Plug-In . SVG Version: 6.00 Build 0)  -->
<svg version="1.1" id="Layer_1" xmlns="http://www.w3.org/2000/svg" xmlns:xlink="http://www.w3.org/1999/xlink" x="0px" y="0px"
	 viewBox="0 0 50 50" style="enable-background:new 0 0 50 50;" xml:space="preserve">
<style type="text/css">
	.st0{fill:#dc3545;}
</style>
<g>
	<path class="st0" d="M42.067,47.649H8.797c-0.411,0-0.744-0.333-0.744-0.744V10.398c0-0.24,0.115-0.464,0.309-0.604l9.728-7.004
		c0.127-0.091,0.279-0.14,0.435-0.14h23.542c0.411,0,0.744,0.333,0.744,0.744v43.511C42.811,47.316,42.478,47.649,42.067,47.649z
		 M9.542,46.16h31.781V4.138H18.765l-9.224,6.641V46.16z"/>
	<path class="st0" d="M18.525,11.142H8.797c-0.323,0-0.609-0.208-0.708-0.516C7.99,10.319,8.1,9.983,8.362,9.794l9.728-7.004
		c0.227-0.163,0.527-0.186,0.774-0.058c0.249,0.127,0.405,0.383,0.405,0.662v7.004C19.269,10.809,18.936,11.142,18.525,11.142z
		 M11.105,9.653h6.676V4.847L11.105,9.653z"/>
	<path class="st0" d="M17.145,18.619c-0.236,0-0.463-0.113-0.605-0.311l-1.532-2.14c-0.239-0.334-0.162-0.799,0.172-1.039
		c0.334-0.238,0.799-0.162,1.039,0.172l0.597,0.834c0.425-1.28,1.239-2.948,2.707-3.589c0.378-0.164,0.816,0.008,0.98,0.384
		c0.165,0.376-0.008,0.815-0.384,0.98c-1.42,0.62-2.096,3.151-2.237,4.075c-0.046,0.299-0.268,0.541-0.563,0.612
		C17.261,18.612,17.202,18.619,17.145,18.619z"/>
	<path class="st0" d="M35.628,16.698h-12.5c-0.411,0-0.744-0.333-0.744-0.744s0.333-0.744,0.744-0.744h12.5
		c0.411,0,0.744,0.333,0.744,0.744S36.039,16.698,35.628,16.698z"/>
	<path class="st0" d="M17.145,26.708c-0.236,0-0.463-0.113-0.605-0.31l-1.532-2.14c-0.239-0.334-0.162-0.799,0.172-1.039
		c0.334-0.238,0.799-0.162,1.039,0.172l0.597,0.835c0.425-1.28,1.239-2.947,2.707-3.589c0.374-0.165,0.815,0.006,0.98,0.384
		c0.165,0.377-0.007,0.816-0.384,0.98c-1.42,0.621-2.096,3.152-2.237,4.075c-0.046,0.299-0.268,0.541-0.563,0.612
		C17.261,26.702,17.202,26.708,17.145,26.708z"/>
	<path class="st0" d="M35.628,24.787h-12.5c-0.411,0-0.744-0.333-0.744-0.744s0.333-0.744,0.744-0.744h12.5
		c0.411,0,0.744,0.333,0.744,0.744S36.039,24.787,35.628,24.787z"/>
	<path class="st0" d="M17.145,34.797c-0.236,0-0.463-0.113-0.605-0.311l-1.532-2.14c-0.239-0.334-0.162-0.799,0.172-1.039
		c0.334-0.238,0.799-0.162,1.039,0.172l0.597,0.835c0.425-1.28,1.239-2.947,2.707-3.589c0.374-0.165,0.815,0.006,0.98,0.384
		c0.165,0.377-0.007,0.816-0.384,0.98c-1.42,0.621-2.096,3.152-2.237,4.075c-0.046,0.299-0.268,0.541-0.563,0.612
		C17.261,34.791,17.202,34.797,17.145,34.797z"/>
	<path class="st0" d="M35.628,32.877h-12.5c-0.411,0-0.744-0.333-0.744-0.744c0-0.411,0.333-0.744,0.744-0.744h12.5
		c0.411,0,0.744,0.333,0.744,0.744C36.373,32.543,36.039,32.877,35.628,32.877z"/>
	<path class="st0" d="M17.145,42.887c-0.236,0-0.463-0.113-0.605-0.311l-1.532-2.14c-0.239-0.334-0.162-0.799,0.172-1.039
		c0.334-0.238,0.799-0.162,1.039,0.172l0.597,0.834c0.425-1.28,1.239-2.947,2.707-3.588c0.378-0.165,0.816,0.008,0.98,0.384
		c0.165,0.376-0.008,0.815-0.384,0.98c-1.42,0.62-2.096,3.151-2.237,4.074c-0.046,0.299-0.268,0.541-0.563,0.612
		C17.261,42.88,17.202,42.887,17.145,42.887z"/>
	<path class="st0" d="M35.628,40.966h-12.5c-0.411,0-0.744-0.333-0.744-0.744s0.333-0.744,0.744-0.744h12.5
		c0.411,0,0.744,0.333,0.744,0.744S36.039,40.966,35.628,40.966z"/>
</g>
</svg>
