<?xml version="1.0" encoding="utf-8"?>
<!-- Generator: Adobe Illustrator 24.1.2, SVG Export Plug-In . SVG Version: 6.00 Build 0)  -->
<svg version="1.1" id="Layer_1" xmlns="http://www.w3.org/2000/svg" xmlns:xlink="http://www.w3.org/1999/xlink" x="0px" y="0px"
	 viewBox="0 0 50 50" style="enable-background:new 0 0 50 50;" xml:space="preserve">
<style type="text/css">
	.st0{fill:#dc3545;}
</style>
<g>
	<path class="st0" d="M13.566,9.868H5.394c-0.322,0-0.607-0.207-0.706-0.514C4.589,9.047,4.699,8.712,4.96,8.524l8.172-5.884
		c0.226-0.162,0.524-0.185,0.772-0.058c0.247,0.127,0.403,0.382,0.403,0.66v5.884C14.308,9.536,13.976,9.868,13.566,9.868z
		 M7.693,8.384h5.132V4.69L7.693,8.384z"/>
	<path class="st0" d="M28.611,40.773c-9.229,0-16.738-7.508-16.738-16.738S19.381,7.298,28.611,7.298
		c9.229,0,16.737,7.508,16.737,16.738S37.84,40.773,28.611,40.773z M28.611,8.782c-8.411,0-15.254,6.843-15.254,15.254
		S20.199,39.29,28.611,39.29c8.411,0,15.254-6.843,15.254-15.254S37.022,8.782,28.611,8.782z"/>
	<path class="st0" d="M28.611,37.591c-7.474,0-13.554-6.081-13.554-13.555c0-7.474,6.081-13.554,13.554-13.554
		c7.474,0,13.555,6.081,13.555,13.554C42.165,31.51,36.085,37.591,28.611,37.591z M28.611,11.965
		c-6.656,0-12.071,5.415-12.071,12.071s5.415,12.071,12.071,12.071s12.071-5.415,12.071-12.071S35.266,11.965,28.611,11.965z"/>
	<path class="st0" d="M28.611,26.256c-1.224,0-2.22-0.996-2.22-2.22c0-1.224,0.996-2.22,2.22-2.22c1.224,0,2.22,0.996,2.22,2.22
		C30.831,25.26,29.835,26.256,28.611,26.256z M28.611,23.299c-0.406,0-0.737,0.331-0.737,0.737c0,0.406,0.331,0.737,0.737,0.737
		c0.406,0,0.737-0.331,0.737-0.737C29.347,23.63,29.017,23.299,28.611,23.299z"/>
	<path class="st0" d="M28.611,12.682c-0.41,0-0.742-0.332-0.742-0.742v-0.717c0-0.41,0.332-0.742,0.742-0.742
		c0.41,0,0.742,0.332,0.742,0.742v0.717C29.352,12.35,29.02,12.682,28.611,12.682z"/>
	<path class="st0" d="M32.748,13.411c-0.084,0-0.17-0.014-0.254-0.045c-0.385-0.14-0.583-0.566-0.443-0.951l0.245-0.673
		c0.14-0.385,0.564-0.582,0.951-0.443c0.385,0.14,0.583,0.566,0.443,0.951l-0.245,0.673C33.335,13.225,33.051,13.411,32.748,13.411z
		"/>
	<path class="st0" d="M36.385,15.512c-0.168,0-0.337-0.057-0.476-0.173c-0.314-0.263-0.355-0.731-0.092-1.045l0.461-0.549
		c0.262-0.313,0.732-0.356,1.045-0.092c0.314,0.263,0.355,0.731,0.092,1.045l-0.461,0.549
		C36.808,15.421,36.597,15.512,36.385,15.512z"/>
	<path class="st0" d="M39.087,18.73c-0.256,0-0.505-0.133-0.643-0.37c-0.205-0.355-0.084-0.808,0.271-1.013l0.621-0.359
		c0.355-0.206,0.808-0.084,1.013,0.271c0.205,0.355,0.084,0.808-0.271,1.013l-0.621,0.359C39.34,18.698,39.213,18.73,39.087,18.73z"
		/>
	<path class="st0" d="M40.522,22.677c-0.353,0-0.666-0.253-0.729-0.614c-0.071-0.403,0.199-0.787,0.602-0.859l0.706-0.124
		c0.396-0.071,0.788,0.198,0.859,0.603c0.071,0.403-0.199,0.787-0.602,0.859l-0.706,0.124
		C40.608,22.674,40.565,22.677,40.522,22.677z"/>
	<path class="st0" d="M41.23,27.003c-0.043,0-0.086-0.003-0.13-0.011l-0.706-0.125c-0.403-0.071-0.672-0.456-0.601-0.86
		c0.071-0.403,0.448-0.674,0.86-0.601l0.706,0.125c0.403,0.071,0.672,0.456,0.601,0.86C41.896,26.749,41.583,27.003,41.23,27.003z"
		/>
	<path class="st0" d="M39.706,31.184c-0.126,0-0.254-0.032-0.371-0.1l-0.621-0.359c-0.355-0.205-0.476-0.658-0.271-1.013
		c0.205-0.355,0.658-0.477,1.013-0.271l0.621,0.359c0.355,0.205,0.476,0.658,0.271,1.013C40.211,31.052,39.962,31.184,39.706,31.184
		z"/>
	<path class="st0" d="M36.847,34.593c-0.212,0-0.422-0.09-0.569-0.265l-0.461-0.549c-0.263-0.313-0.222-0.782,0.092-1.045
		c0.313-0.263,0.782-0.221,1.045,0.092l0.461,0.549c0.263,0.313,0.222,0.782-0.092,1.045C37.184,34.536,37.015,34.593,36.847,34.593
		z"/>
	<path class="st0" d="M32.993,36.818c-0.303,0-0.588-0.187-0.697-0.488l-0.245-0.673c-0.14-0.385,0.059-0.811,0.443-0.951
		c0.388-0.139,0.811,0.059,0.951,0.443l0.245,0.673c0.14,0.385-0.059,0.811-0.443,0.951C33.163,36.803,33.077,36.818,32.993,36.818z
		"/>
	<path class="st0" d="M28.611,37.591c-0.41,0-0.742-0.332-0.742-0.742v-0.717c0-0.41,0.332-0.742,0.742-0.742
		c0.41,0,0.742,0.332,0.742,0.742v0.717C29.352,37.259,29.02,37.591,28.611,37.591z"/>
	<path class="st0" d="M24.228,36.818c-0.084,0-0.17-0.015-0.254-0.045c-0.385-0.14-0.583-0.566-0.443-0.951l0.245-0.673
		c0.14-0.385,0.564-0.582,0.951-0.443c0.385,0.14,0.583,0.566,0.443,0.951l-0.245,0.673C24.816,36.631,24.531,36.818,24.228,36.818z
		"/>
	<path class="st0" d="M20.374,34.593c-0.168,0-0.337-0.057-0.476-0.173c-0.314-0.263-0.355-0.731-0.092-1.045l0.46-0.549
		c0.262-0.313,0.73-0.355,1.045-0.092c0.314,0.263,0.355,0.731,0.092,1.045l-0.46,0.549C20.797,34.503,20.587,34.593,20.374,34.593z
		"/>
	<path class="st0" d="M17.515,31.184c-0.256,0-0.505-0.133-0.643-0.37c-0.205-0.355-0.084-0.808,0.271-1.013l0.621-0.359
		c0.354-0.206,0.809-0.084,1.013,0.271c0.205,0.355,0.084,0.808-0.271,1.013l-0.621,0.359
		C17.769,31.152,17.641,31.184,17.515,31.184z"/>
	<path class="st0" d="M15.992,27.003c-0.353,0-0.666-0.253-0.73-0.612c-0.071-0.404,0.198-0.789,0.601-0.86l0.706-0.125
		c0.411-0.073,0.788,0.199,0.86,0.601c0.071,0.404-0.198,0.789-0.602,0.86l-0.706,0.125C16.078,26.999,16.034,27.003,15.992,27.003z
		"/>
	<path class="st0" d="M16.7,22.677c-0.043,0-0.086-0.003-0.129-0.011l-0.706-0.124c-0.403-0.071-0.673-0.455-0.602-0.859
		c0.071-0.404,0.462-0.673,0.859-0.603l0.706,0.124c0.403,0.071,0.673,0.455,0.602,0.859C17.366,22.424,17.053,22.677,16.7,22.677z"
		/>
	<path class="st0" d="M18.134,18.73c-0.126,0-0.254-0.032-0.371-0.1l-0.621-0.359c-0.355-0.205-0.476-0.658-0.271-1.013
		c0.204-0.355,0.659-0.477,1.013-0.271l0.621,0.359c0.355,0.205,0.476,0.658,0.271,1.013C18.64,18.597,18.39,18.73,18.134,18.73z"/>
	<path class="st0" d="M20.836,15.512c-0.212,0-0.422-0.09-0.569-0.265l-0.46-0.549c-0.263-0.314-0.222-0.782,0.092-1.045
		c0.314-0.264,0.782-0.221,1.045,0.092l0.46,0.549c0.263,0.314,0.222,0.782-0.092,1.045C21.172,15.455,21.004,15.512,20.836,15.512z
		"/>
	<path class="st0" d="M24.473,13.411c-0.303,0-0.588-0.187-0.697-0.488l-0.245-0.673c-0.14-0.385,0.059-0.811,0.443-0.951
		c0.388-0.139,0.811,0.059,0.951,0.443l0.245,0.673c0.14,0.385-0.059,0.811-0.443,0.951C24.643,13.397,24.557,13.411,24.473,13.411z
		"/>
	<path class="st0" d="M28.255,23.344c-0.356,0-0.67-0.257-0.731-0.621l-1.344-8.107c-0.067-0.404,0.206-0.786,0.611-0.853
		c0.398-0.066,0.786,0.206,0.853,0.611l1.344,8.107c0.067,0.404-0.206,0.786-0.611,0.853C28.337,23.341,28.296,23.344,28.255,23.344
		z"/>
	<path class="st0" d="M27.132,24.778h-2.781c-0.41,0-0.742-0.332-0.742-0.742c0-0.41,0.332-0.742,0.742-0.742h2.781
		c0.41,0,0.742,0.332,0.742,0.742C27.873,24.446,27.541,24.778,27.132,24.778z"/>
	<path class="st0" d="M36.856,47.5H8.908c-0.41,0-0.742-0.332-0.742-0.742v-3.31c0-0.41,0.332-0.742,0.742-0.742h23.693V39.32
		c0-0.325,0.212-0.613,0.523-0.709c1.169-0.361,2.296-0.866,3.35-1.502c0.229-0.139,0.515-0.142,0.747-0.011
		c0.233,0.131,0.377,0.378,0.377,0.646v9.014C37.598,47.168,37.266,47.5,36.856,47.5z M9.65,46.017h26.465V39
		c-0.658,0.331-1.337,0.617-2.03,0.858v3.591c0,0.41-0.332,0.742-0.742,0.742H9.65V46.017z"/>
	<path class="st0" d="M36.856,11.07c-0.133,0-0.265-0.035-0.383-0.107c-1.053-0.635-2.18-1.14-3.35-1.502
		c-0.311-0.096-0.522-0.384-0.522-0.709V6.551c0-0.41,0.332-0.742,0.742-0.742h3.514c0.41,0,0.742,0.332,0.742,0.742v3.777
		c0,0.268-0.144,0.514-0.377,0.646C37.108,11.038,36.982,11.07,36.856,11.07z M34.084,8.215c0.694,0.24,1.373,0.527,2.03,0.858
		V7.293h-2.03V8.215z"/>
	<path class="st0" d="M33.343,44.19H5.394c-0.41,0-0.742-0.332-0.742-0.742V9.126c0-0.239,0.115-0.462,0.308-0.602l8.172-5.884
		c0.126-0.091,0.278-0.14,0.433-0.14h19.777c0.41,0,0.742,0.332,0.742,0.742v5.51c0,0.236-0.112,0.457-0.301,0.597
		c-0.19,0.14-0.435,0.181-0.659,0.112c-1.457-0.451-2.976-0.679-4.513-0.679c-8.411,0-15.254,6.843-15.254,15.254
		S20.199,39.29,28.611,39.29c1.539,0,3.058-0.228,4.513-0.679c0.227-0.068,0.47-0.028,0.66,0.112
		c0.189,0.14,0.301,0.361,0.301,0.597v4.129C34.084,43.858,33.752,44.19,33.343,44.19z M6.135,42.707h26.466v-2.413
		c-1.3,0.318-2.638,0.479-3.991,0.479c-9.229,0-16.738-7.508-16.738-16.738S19.381,7.298,28.611,7.298
		c1.351,0,2.689,0.161,3.991,0.479V3.983H13.805l-7.67,5.523V42.707z"/>
</g>
</svg>
