<?xml version="1.0" encoding="utf-8"?>
<!-- Generator: Adobe Illustrator 24.1.2, SVG Export Plug-In . SVG Version: 6.00 Build 0)  -->
<svg version="1.1" id="Layer_1" xmlns="http://www.w3.org/2000/svg" xmlns:xlink="http://www.w3.org/1999/xlink" x="0px" y="0px"
	 viewBox="0 0 50 50" style="enable-background:new 0 0 50 50;" xml:space="preserve">
<style type="text/css">
	.st0{fill:#dc3545;}
</style>
<g>
	<g>
		<path class="st0" d="M17.045,12.106c-0.42,0-0.761-0.341-0.761-0.761v-0.836c0-0.42,0.341-0.761,0.761-0.761
			c0.42,0,0.761,0.341,0.761,0.761v0.836C17.806,11.765,17.466,12.106,17.045,12.106z"/>
		<path class="st0" d="M17.045,24.11c-4.76,0-8.633-3.873-8.633-8.633c0-4.761,3.873-8.634,8.633-8.634
			c4.761,0,8.633,3.873,8.633,8.634C25.678,20.237,21.806,24.11,17.045,24.11z M17.045,8.366c-3.921,0-7.111,3.19-7.111,7.111
			c0,3.921,3.19,7.111,7.111,7.111c3.921,0,7.111-3.19,7.111-7.111C24.156,11.556,20.966,8.366,17.045,8.366z"/>
		<path class="st0" d="M17.045,27.346c-6.545,0-11.869-5.325-11.869-11.869c0-6.545,5.325-11.869,11.869-11.869
			c6.545,0,11.869,5.325,11.869,11.869C28.914,22.021,23.59,27.346,17.045,27.346z M17.045,5.13
			c-5.705,0-10.347,4.642-10.347,10.347c0,5.705,4.642,10.346,10.347,10.346c5.705,0,10.347-4.641,10.347-10.346
			C27.392,9.772,22.751,5.13,17.045,5.13z"/>
		<path class="st0" d="M20.783,27.346c-0.42,0-0.761-0.341-0.761-0.761c0-0.42,0.341-0.761,0.761-0.761
			c5.705,0,10.347-4.641,10.347-10.346c0-5.705-4.642-10.347-10.347-10.347h-3.738c-0.42,0-0.761-0.341-0.761-0.761
			s0.341-0.761,0.761-0.761h3.738c6.545,0,11.869,5.325,11.869,11.869C32.652,22.021,27.328,27.346,20.783,27.346z"/>
		<path class="st0" d="M17.045,20.371c-1.641,0-2.976-1.268-2.976-2.828c0-0.42,0.341-0.761,0.761-0.761
			c0.42,0,0.761,0.341,0.761,0.761c0,0.72,0.652,1.305,1.454,1.305c0.802,0,1.454-0.586,1.454-1.305
			c0-0.719-0.652-1.305-1.454-1.305c-1.641,0-2.976-1.268-2.976-2.828c0-1.559,1.335-2.828,2.976-2.828
			c1.641,0,2.976,1.268,2.976,2.828c0,0.42-0.341,0.761-0.761,0.761s-0.761-0.341-0.761-0.761c0-0.72-0.652-1.305-1.454-1.305
			c-0.802,0-1.454,0.586-1.454,1.305c0,0.719,0.652,1.305,1.454,1.305c1.641,0,2.976,1.268,2.976,2.827
			C20.021,19.102,18.686,20.371,17.045,20.371z"/>
		<path class="st0" d="M17.045,21.319c-0.42,0-0.761-0.341-0.761-0.761v-0.948c0-0.42,0.341-0.761,0.761-0.761
			c0.42,0,0.761,0.341,0.761,0.761v0.948C17.806,20.978,17.466,21.319,17.045,21.319z"/>
		<path class="st0" d="M26.559,46.392H5.534c-0.88,0-1.596-0.716-1.596-1.596v-3.092c0-0.88,0.716-1.596,1.596-1.596h21.025
			c0.88,0,1.596,0.716,1.596,1.596v3.092C28.155,45.676,27.439,46.392,26.559,46.392z M5.534,41.631
			c-0.041,0-0.074,0.033-0.074,0.074v3.092c0,0.04,0.033,0.074,0.074,0.074h21.025c0.04,0,0.073-0.033,0.073-0.074v-3.092
			c0-0.04-0.033-0.074-0.073-0.074H5.534z"/>
		<path class="st0" d="M22.683,46.392H9.411c-0.722,0-1.288-0.701-1.288-1.596v-3.092c0-0.895,0.566-1.596,1.288-1.596h13.271
			c0.722,0,1.288,0.701,1.288,1.596v3.092C23.971,45.691,23.405,46.392,22.683,46.392z M9.65,44.87h12.794
			c0.003-0.022,0.005-0.046,0.005-0.074v-3.092c0-0.027-0.002-0.052-0.005-0.074H9.65c-0.003,0.022-0.005,0.046-0.005,0.074v3.092
			C9.645,44.823,9.647,44.848,9.65,44.87z"/>
		<path class="st0" d="M18.52,46.392h-4.946c-0.437,0-0.958-0.277-0.958-1.596v-3.092c0-1.319,0.521-1.596,0.958-1.596h4.946
			c0.437,0,0.958,0.277,0.958,1.596v3.092C19.477,46.115,18.956,46.392,18.52,46.392z M14.139,44.87h3.815
			c0.001-0.024,0.001-0.048,0.001-0.074v-3.092c0-0.026,0-0.05-0.001-0.074h-3.815c-0.001,0.024-0.001,0.048-0.001,0.074v3.092
			C14.139,44.821,14.139,44.846,14.139,44.87z"/>
		<path class="st0" d="M27.878,41.631H6.854c-0.88,0-1.596-0.716-1.596-1.596v-3.092c0-0.879,0.716-1.595,1.596-1.595h21.025
			c0.88,0,1.596,0.716,1.596,1.595v3.092C29.474,40.915,28.758,41.631,27.878,41.631z M6.854,36.869
			c-0.041,0-0.074,0.033-0.074,0.073v3.092c0,0.04,0.033,0.074,0.074,0.074h21.025c0.04,0,0.073-0.033,0.073-0.074v-3.092
			c0-0.04-0.033-0.073-0.073-0.073H6.854z"/>
		<path class="st0" d="M24.002,41.631H10.73c-0.722,0-1.288-0.701-1.288-1.596v-3.092c0-0.894,0.566-1.595,1.288-1.595h13.271
			c0.722,0,1.288,0.701,1.288,1.595v3.092C25.29,40.929,24.724,41.631,24.002,41.631z M10.969,40.108h12.794
			c0.003-0.022,0.005-0.046,0.005-0.074v-3.092c0-0.027-0.002-0.052-0.005-0.073H10.969c-0.003,0.021-0.005,0.046-0.005,0.073v3.092
			C10.964,40.062,10.966,40.086,10.969,40.108z"/>
		<path class="st0" d="M19.839,41.631h-4.946c-0.437,0-0.958-0.277-0.958-1.596v-3.092c0-1.319,0.521-1.595,0.958-1.595h4.946
			c0.437,0,0.957,0.277,0.957,1.595v3.092C20.796,41.353,20.276,41.631,19.839,41.631z M15.459,40.108h3.814
			c0.001-0.024,0.001-0.048,0.001-0.074v-3.092c0-0.026,0-0.05-0.001-0.073h-3.814c-0.001,0.023-0.001,0.048-0.001,0.073v3.092
			C15.458,40.06,15.458,40.085,15.459,40.108z"/>
		<path class="st0" d="M27.466,36.869H6.441c-0.88,0-1.596-0.716-1.596-1.596v-3.092c0-0.879,0.716-1.595,1.596-1.595h21.025
			c0.88,0,1.596,0.716,1.596,1.595v3.092C29.062,36.153,28.346,36.869,27.466,36.869z M6.441,32.108
			c-0.04,0-0.073,0.033-0.073,0.073v3.092c0,0.04,0.033,0.074,0.073,0.074h21.025c0.041,0,0.074-0.033,0.074-0.074v-3.092
			c0-0.04-0.033-0.073-0.074-0.073H6.441z"/>
		<path class="st0" d="M23.59,36.869H10.318c-0.722,0-1.288-0.701-1.288-1.596v-3.092c0-0.894,0.566-1.595,1.288-1.595H23.59
			c0.722,0,1.288,0.701,1.288,1.595v3.092C24.878,36.168,24.312,36.869,23.59,36.869z M10.557,35.347h12.794
			c0.003-0.022,0.005-0.046,0.005-0.074v-3.092c0-0.027-0.002-0.052-0.005-0.073H10.557c-0.003,0.021-0.005,0.046-0.005,0.073v3.092
			C10.552,35.301,10.554,35.325,10.557,35.347z"/>
		<path class="st0" d="M19.427,36.869h-4.946c-0.437,0-0.957-0.277-0.957-1.596v-3.092c0-1.319,0.521-1.595,0.957-1.595h4.946
			c0.437,0,0.958,0.277,0.958,1.595v3.092C20.384,36.592,19.863,36.869,19.427,36.869z M15.047,35.347h3.814
			c0.001-0.024,0.001-0.048,0.001-0.074v-3.092c0-0.026,0-0.05-0.001-0.073h-3.814c-0.001,0.023-0.001,0.048-0.001,0.073v3.092
			C15.046,35.299,15.046,35.323,15.047,35.347z"/>
		<path class="st0" d="M28.806,32.108H7.781c-0.88,0-1.596-0.716-1.596-1.596V27.42c0-0.88,0.716-1.596,1.596-1.596h21.024
			c0.88,0,1.596,0.716,1.596,1.596v3.092C30.402,31.392,29.686,32.108,28.806,32.108z M7.781,27.346
			c-0.041,0-0.074,0.033-0.074,0.074v3.092c0,0.04,0.033,0.074,0.074,0.074h21.024c0.041,0,0.074-0.033,0.074-0.074V27.42
			c0-0.04-0.033-0.074-0.074-0.074H7.781z"/>
		<path class="st0" d="M24.929,32.108H11.658c-0.722,0-1.288-0.701-1.288-1.596V27.42c0-0.895,0.566-1.596,1.288-1.596h13.272
			c0.722,0,1.288,0.701,1.288,1.596v3.092C26.217,31.407,25.652,32.108,24.929,32.108z M11.897,30.586H24.69
			c0.003-0.022,0.005-0.046,0.005-0.074V27.42c0-0.027-0.002-0.052-0.005-0.074H11.897c-0.003,0.022-0.005,0.046-0.005,0.074v3.092
			C11.892,30.539,11.894,30.564,11.897,30.586z"/>
		<path class="st0" d="M20.767,32.108H15.82c-0.437,0-0.957-0.277-0.957-1.596V27.42c0-1.319,0.521-1.596,0.957-1.596h4.946
			c0.437,0,0.957,0.277,0.957,1.596v3.092C21.724,31.831,21.203,32.108,20.767,32.108z M16.386,30.586h3.814
			c0.001-0.024,0.001-0.048,0.001-0.074V27.42c0-0.026,0-0.05-0.001-0.074h-3.814c-0.001,0.024-0.001,0.048-0.001,0.074v3.092
			C16.385,30.537,16.386,30.562,16.386,30.586z"/>
		<path class="st0" d="M36.102,46.392h-4.946c-0.42,0-0.761-0.341-0.761-0.761c0-0.421,0.341-0.761,0.761-0.761h4.38
			c0.001-0.024,0.001-0.048,0.001-0.074v-3.092c0-0.026,0-0.05-0.001-0.074h-4.38c-0.42,0-0.761-0.341-0.761-0.761
			s0.341-0.761,0.761-0.761h4.946c0.437,0,0.957,0.277,0.957,1.596v3.092C37.059,46.115,36.539,46.392,36.102,46.392z"/>
		<path class="st0" d="M35.195,36.869h-3.681c-0.42,0-0.761-0.341-0.761-0.761c0-0.42,0.341-0.761,0.761-0.761h3.116
			c0.001-0.024,0.001-0.048,0.001-0.074v-3.092c0-0.026,0-0.05-0.001-0.073h-2.182c-0.42,0-0.761-0.341-0.761-0.761
			c0-0.42,0.341-0.761,0.761-0.761h2.747c0.437,0,0.958,0.277,0.958,1.595v3.092C36.153,36.592,35.632,36.869,35.195,36.869z"/>
		<path class="st0" d="M39.358,36.869h-7.844c-0.42,0-0.761-0.341-0.761-0.761c0-0.42,0.341-0.761,0.761-0.761h7.606
			c0.003-0.022,0.005-0.046,0.005-0.074v-3.092c0-0.027-0.002-0.052-0.005-0.073h-6.671c-0.42,0-0.761-0.341-0.761-0.761
			c0-0.42,0.341-0.761,0.761-0.761h6.91c0.722,0,1.288,0.701,1.288,1.595v3.092C40.646,36.168,40.08,36.869,39.358,36.869z"/>
		<path class="st0" d="M43.234,36.869H31.513c-0.42,0-0.761-0.341-0.761-0.761c0-0.42,0.341-0.761,0.761-0.761h11.721
			c0.041,0,0.074-0.033,0.074-0.074v-3.092c0-0.04-0.033-0.073-0.074-0.073H32.448c-0.42,0-0.761-0.341-0.761-0.761
			c0-0.42,0.341-0.761,0.761-0.761h10.786c0.88,0,1.596,0.716,1.596,1.595v3.092C44.83,36.153,44.114,36.869,43.234,36.869z"/>
		<path class="st0" d="M34.783,41.631H31.52c-0.42,0-0.761-0.341-0.761-0.761s0.341-0.761,0.761-0.761h2.697
			c0.001-0.024,0.001-0.048,0.001-0.074v-3.092c0-0.026,0-0.05-0.001-0.074h-2.704c-0.42,0-0.761-0.341-0.761-0.761
			c0-0.42,0.341-0.761,0.761-0.761h3.269c0.437,0,0.957,0.277,0.957,1.596v3.092C35.74,41.353,35.22,41.631,34.783,41.631z"/>
		<path class="st0" d="M38.946,41.631H31.52c-0.42,0-0.761-0.341-0.761-0.761s0.341-0.761,0.761-0.761h7.187
			c0.003-0.022,0.005-0.046,0.005-0.074v-3.092c0-0.027-0.002-0.052-0.005-0.074h-7.193c-0.42,0-0.761-0.341-0.761-0.761
			c0-0.42,0.341-0.761,0.761-0.761h7.432c0.722,0,1.288,0.701,1.288,1.596v3.092C40.234,40.929,39.668,41.631,38.946,41.631z"/>
		<path class="st0" d="M42.822,41.631H31.52c-0.42,0-0.761-0.341-0.761-0.761s0.341-0.761,0.761-0.761h11.302
			c0.041,0,0.074-0.033,0.074-0.074v-3.092c0-0.04-0.033-0.074-0.074-0.074H31.513c-0.42,0-0.761-0.341-0.761-0.761
			c0-0.42,0.341-0.761,0.761-0.761h11.308c0.88,0,1.596,0.716,1.596,1.596v3.092C44.418,40.915,43.702,41.631,42.822,41.631z"/>
		<path class="st0" d="M40.265,46.392H30.196c-0.42,0-0.761-0.341-0.761-0.761c0-0.421,0.341-0.761,0.761-0.761h9.83
			c0.003-0.022,0.005-0.046,0.005-0.074v-3.092c0-0.027-0.002-0.052-0.005-0.074H31.52c-0.42,0-0.761-0.341-0.761-0.761
			s0.341-0.761,0.761-0.761h8.745c0.722,0,1.288,0.701,1.288,1.596v3.092C41.553,45.691,40.987,46.392,40.265,46.392z"/>
		<path class="st0" d="M44.141,46.392H30.196c-0.42,0-0.761-0.341-0.761-0.761c0-0.421,0.341-0.761,0.761-0.761h13.946
			c0.041,0,0.074-0.033,0.074-0.074v-3.092c0-0.04-0.033-0.074-0.074-0.074H31.52c-0.42,0-0.761-0.341-0.761-0.761
			s0.341-0.761,0.761-0.761h12.621c0.88,0,1.596,0.716,1.596,1.596v3.092C45.737,45.676,45.021,46.392,44.141,46.392z"/>
		<path class="st0" d="M46.739,46.392H3.261c-0.42,0-0.761-0.341-0.761-0.761c0-0.421,0.341-0.761,0.761-0.761h43.478
			c0.42,0,0.761,0.341,0.761,0.761C47.5,46.051,47.159,46.392,46.739,46.392z"/>
		<path class="st0" d="M31.156,20.22h-3.609c-0.42,0-0.761-0.341-0.761-0.761s0.341-0.761,0.761-0.761h3.609
			c0.42,0,0.761,0.341,0.761,0.761S31.576,20.22,31.156,20.22z"/>
		<path class="st0" d="M30.615,11.064h-3.632c-0.42,0-0.761-0.341-0.761-0.761s0.341-0.761,0.761-0.761h3.632
			c0.42,0,0.761,0.341,0.761,0.761S31.035,11.064,30.615,11.064z"/>
	</g>
</g>
</svg>
