<svg xmlns="http://www.w3.org/2000/svg" viewBox="0 0 64 48"><defs><style>.cls-1{fill:#7c4c19;}.cls-2{fill:#aa752e;}.cls-3{fill:#ffda00;}</style></defs><title>Wallet</title><g id="Layer_2" data-name="Layer 2"><g id="Layer_1-2" data-name="Layer 1"><path class="cls-1" d="M0,4H0A4,4,0,0,1,4,0H52a4,4,0,0,1,4,4V16H0Z"/><path class="cls-2" d="M56,48H4a4,4,0,0,1-4-4V4H0A4,4,0,0,0,4,8H56a4,4,0,0,1,4,4V44A4,4,0,0,1,56,48Z"/><path class="cls-1" d="M54,22h8a2,2,0,0,1,2,2v8a2,2,0,0,1-2,2H54a6,6,0,0,1-6-6v0a6,6,0,0,1,6-6Z"/><circle class="cls-3" cx="54" cy="28" r="2"/></g></g></svg>